<?xml version="1.0" encoding="UTF-8" standalone="no"?><!DOCTYPE svg PUBLIC "-//W3C//DTD SVG 1.1//EN" "http://www.w3.org/Graphics/SVG/1.1/DTD/svg11.dtd"><svg width="100%" height="100%" viewBox="0 0 946 986" version="1.1" xmlns="http://www.w3.org/2000/svg" xmlns:xlink="http://www.w3.org/1999/xlink" xml:space="preserve" xmlns:serif="http://www.serif.com/" style="fill-rule:evenodd;clip-rule:evenodd;stroke-linejoin:round;stroke-miterlimit:2;"><g><g><path d="M158.438,921.875l-11.875,4.063l4.687,-38.438c-8.437,-3.125 -26.562,-8.437 -48.437,-8.125c-14.375,2.813 -31.563,25.938 -31.563,49.375c0,20.938 14.063,34.375 40.312,38.75c54.688,9.063 129.375,-13.75 165.625,-26.562c-17.187,-5.313 -32.812,-11.875 -47.187,-19.063c-6.875,-0.937 -49.687,-7.812 -71.562,0Z" style="fill:#64999c;fill-rule:nonzero;"/></g><g><path d="M795,887.813l4.688,38.437l-11.875,-4.062c-21.563,-7.813 -64.688,-0.938 -71.563,-0c-14.375,7.187 -30,13.437 -47.187,19.062c36.25,12.813 110.625,35.625 165.625,26.563c26.25,-4.375 40.312,-17.813 40.312,-38.75c0,-23.438 -17.187,-46.563 -31.562,-49.375c-21.875,-0.313 -40,5 -48.438,8.125Z" style="fill:#477f80;fill-rule:nonzero;"/></g><g><path d="M134.688,529.063l-16.25,9.687l4.687,-18.125c8.125,-30.625 21.563,-55 35.313,-74.062c-2.188,-9.688 -10.313,-52.5 -4.063,-104.375c-25,14.687 -79.375,53.125 -108.125,124.375c10.938,-9.375 47.188,-12.813 47.188,-12.813c-14.063,6.563 -26.875,15.938 -36.875,24.688c-32.813,56.25 -39.063,150.625 -40.313,185.937c41.25,-23.75 83.75,-25.625 100.625,-25.312c5.313,-48.438 15.313,-89.688 21.563,-111.875c-2.5,0.937 -3.75,1.562 -3.75,1.875Z" style="fill:#e4f4f8;fill-rule:nonzero;"/></g><g><path d="M774.063,880.313c-7.813,8.125 -16.563,15.937 -26.563,22.812c11.25,-0.625 23.125,-0.312 33.75,1.25l-3.125,-26.562l5,-2.188c1.563,-0.625 31.563,-14.062 69.688,-11.25c-10.001,-9.375 -26.25,-20.625 -50.313,-24.375c-7.812,15 -17.187,28.438 -28.437,40.313Z" style="fill:#b3d7db;fill-rule:nonzero;"/></g><g><path d="M113.75,684.375c0.313,-9.687 0.938,-20 1.563,-30c-16.25,0 -55.313,2.188 -92.188,23.438c0,17.187 3.125,53.125 20,64.687c16.25,10.938 54.375,-4.375 71.563,-13.125c-0.938,-10.625 -1.25,-21.562 -1.25,-32.812c-4.375,-0 -15.313,0.937 -23.125,7.187c0.625,3.125 1.562,9.375 -0.625,14.063c-0,-0 -1.25,-7.5 -5,-11.875c-3.125,-0 -8.126,-0 -11.563,0.937c0,0 4.063,-6.562 3.125,-15.937c0,-0 5.625,1.875 8.438,4.687c-0,0 9.062,-9.062 29.062,-11.25Z" style="fill:#64999c;fill-rule:nonzero;"/></g><g><path d="M162.813,875.625l5,2.188l-3.125,26.562c10.625,-1.875 22.812,-1.875 33.75,-1.25c-9.688,-7.187 -18.75,-14.687 -26.563,-22.812c-11.25,-11.563 -20.625,-25 -28.75,-40.313c-23.75,3.75 -40.312,15 -50,24.375c38.125,-2.812 68.438,10.625 69.688,11.25Z" style="fill:#b3d7db;fill-rule:nonzero;"/></g><g><path d="M679.375,353.75l0,-1.25c-2.187,-80.625 -25.312,-143.75 -68.75,-187.5c-15,-15.312 -32.5,-27.5 -50.937,-36.875c-0.313,0.313 -0.313,0.625 -0.625,0.625c-1.563,1.875 -3.438,4.063 -5.313,5.625l-5.625,5.313c-1.875,1.875 -4.062,3.437 -6.25,5c-1.875,1.562 -4.375,3.125 -6.562,4.375c-1.25,0.625 -2.188,1.562 -3.438,2.187l-3.75,1.875c-2.5,1.25 -5,2.188 -7.813,3.125c-1.249,0.625 -2.812,0.938 -4.062,1.25c-1.25,0.313 -2.812,0.625 -4.062,0.938l-4.375,0.625l-4.375,-0c-1.563,-0 -3.125,-0 -4.688,-0.313c-1.562,-0.312 -2.812,-0.312 -5.312,-1.25l-5.938,-1.875l0.938,-5.937l0.937,-6.25c0.313,-2.188 0.625,-4.063 1.25,-6.25l0.625,-2.813l-0.625,0.625c-1.875,1.875 -4.062,3.438 -6.25,5c-1.875,1.563 -4.375,3.125 -6.563,4.375c-1.25,0.625 -2.187,1.563 -3.437,2.188l-3.75,1.875c-2.5,1.25 -5,2.187 -7.813,3.125c-1.25,0.625 -2.812,0.937 -4.062,1.25c-1.25,0.312 -2.813,0.625 -4.063,0.937l-4.374,0.625l-4.375,0c-1.563,0 -3.125,0 -4.688,-0.312c-1.562,-0.313 -2.812,-0.313 -5.313,-1.25l-5.937,-1.875l0.938,-5.938l0.937,-6.25c-0,-0.937 0.313,-2.187 0.625,-3.125c-0.313,0.313 -0.937,0.938 -1.25,1.25l-5.625,5.313c-1.875,1.875 -4.062,3.437 -6.25,5c-1.875,1.562 -4.375,3.125 -6.562,4.375c-1.25,0.625 -2.188,1.562 -3.438,2.187l-3.75,1.875c-2.5,1.25 -5,2.188 -7.813,3.125c-1.25,0.625 -2.812,0.938 -4.062,1.25c-1.25,0.313 -2.812,0.625 -4.062,0.938l-4.375,0.625l-4.375,-0c-1.563,-0 -3.125,-0 -4.688,-0.313c-1.562,-0.312 -2.812,-0.312 -5.312,-1.25l-5.938,-1.875l0.938,-5.937l0.937,-6.25c0.313,-2.188 0.625,-4.063 1.25,-6.25l0.313,-1.563c-11.875,7.5 -23.125,16.563 -33.438,26.875c-43.125,43.75 -66.25,106.875 -68.75,187.5l0,1.25l-0.313,0.938c0,0.312 -9.687,30 -2.812,66.875c9.063,49.062 41.563,87.187 96.25,113.437c35,16.875 74.063,25.625 113.125,25.625c39.063,0 78.125,-8.75 113.125,-25.625c55,-26.562 87.5,-65 96.25,-114.375c6.563,-36.875 -2.812,-65.937 -3.125,-66.25l0.625,-0.625Z" style="fill:#64999c;fill-rule:nonzero;"/></g><g><path d="M832.813,684.375c19.687,2.5 28.75,11.25 28.75,11.25c2.812,-2.812 8.437,-4.687 8.437,-4.687c-0.937,9.375 3.125,15.937 3.125,15.937c-3.125,-1.25 -8.125,-1.25 -11.562,-0.937c-4.063,4.375 -5,11.875 -5,11.875c-1.875,-4.688 -1.25,-10.625 -0.625,-14.063c-7.813,-6.25 -18.438,-7.187 -22.813,-7.187c0,11.25 -0.312,22.187 -1.25,32.812c5.313,2.813 15.625,7.5 26.875,11.25c20.313,6.875 36.25,7.5 44.688,1.875c16.875,-11.25 20,-47.187 20,-64.687c-37.188,-21.563 -76.25,-23.75 -92.188,-23.438c0.625,10 1.25,20.313 1.563,30Z" style="fill:#477f80;fill-rule:nonzero;"/></g><g><path d="M853.125,453.438c0,-0 36.25,3.437 47.188,12.812c-29.063,-71.562 -83.438,-110 -108.125,-124.375c6.25,52.188 -1.875,94.688 -4.063,104.375c13.75,19.063 27.188,43.438 35.313,74.063l4.687,18.125l-16.25,-9.688c-0,0 -1.563,-0.937 -3.75,-2.187c6.25,22.187 16.25,63.437 21.562,111.875c16.875,-0.313 59.375,1.562 100.625,25.312c-1.25,-35.625 -7.5,-129.687 -40.312,-185.937c-10,-8.438 -22.812,-18.125 -36.875,-24.375Z" style="fill:#b3d7db;fill-rule:nonzero;"/></g><g><path d="M765.938,506.875c-0,0 28.125,-5 36.875,-0.625c-24.063,-65.937 -66.251,-110.312 -66.251,-110.312c10.938,5.312 26.25,12.187 38.75,34.062c5,-32.187 11.25,-113.437 -30.312,-182.812c-7.813,-14.688 -19.375,-22.5 -30.313,-31.25c24.375,7.187 38.125,15.937 53.75,26.875c-30.312,-91.563 -88.125,-157.5 -171.875,-195.938c-65.625,-30.312 -122.812,-31.562 -123.437,-31.562c-0.313,-0 -58.125,1.25 -123.75,31.875c-83.438,38.75 -140.938,104.375 -171.25,195.625c24.062,-22.5 53.75,-26.875 53.75,-26.875c-12.813,10 -20.938,17.187 -30.313,31.25c-41.562,69.375 -35,150.625 -30.312,182.812c19.687,-22.5 37.5,-33.437 38.75,-34.062c-0,-0 -42.188,44.375 -66.25,110.312c17.187,-7.187 40.625,-4.062 40.625,-4.062c-8.125,3.125 -20,11.25 -26.875,14.687c-8.75,28.438 -72.5,249.063 25.937,352.5c72.5,76.25 226.25,79.688 271.563,79.063c12.187,-0.313 24.375,-0.313 36.562,-0c45.313,0.625 198.75,-2.5 271.563,-79.063c98.437,-103.437 35,-324.062 25.937,-352.5c-7.187,-3.437 -14.999,-6.875 -23.124,-10Zm-68.125,-83.125c-6.875,37.5 -30.313,89.688 -105,125.313c-37.188,17.812 -78.438,27.187 -120,27.187c-41.25,0 -82.813,-9.375 -120,-27.187c-74.375,-35.625 -98.125,-87.813 -105,-125.313c-6.563,-36.875 1.25,-66.562 3.125,-72.5c2.5,-84.062 27.187,-150.312 73.125,-196.875c15.625,-15.937 33.437,-28.75 52.812,-38.75l2.813,-4.687c0.937,-1.875 2.187,-3.438 3.437,-5.313c1.25,-1.562 2.188,-3.437 3.438,-5c1.25,-1.562 2.5,-3.125 3.75,-4.687l4.062,-4.375c1.563,-1.563 2.813,-2.813 4.375,-4.063l4.688,-4.062c1.562,-1.25 3.125,-2.5 4.687,-3.75c3.125,-2.188 6.563,-4.375 10.313,-6.25c-2.813,2.812 -5.313,5.937 -7.5,9.062l-6.875,9.375c-0.938,1.563 -2.188,3.125 -3.125,4.688l-2.813,5c-0.937,1.562 -1.875,3.437 -2.813,5c-0.937,1.562 -1.875,3.437 -2.499,5c-0.938,1.562 -1.563,3.437 -2.188,5l-2.188,5l-1.875,5.312c-0.625,1.563 -1.25,3.438 -1.562,5.313c-0.313,1.875 -0.938,3.437 -1.25,5.312l-0.938,5.313c-0.312,1.25 -0.312,2.187 -0.625,3.437l1.875,0c0.938,-0.312 1.875,-0.312 3.125,-0.312c0.938,-0 2.188,-0.313 3.125,-0.625c0.938,-0.313 2.188,-0.313 3.125,-0.938c1.875,-0.625 4.063,-1.25 5.938,-2.187l3.125,-1.25c0.937,-0.313 1.875,-0.938 2.812,-1.563c1.875,-0.937 4.063,-1.875 5.938,-3.437c1.875,-1.25 3.75,-2.5 5.625,-3.75l5.625,-4.375c1.875,-1.25 3.75,-3.125 5.312,-4.688c1.875,-1.562 3.75,-3.125 5.313,-4.687l5,-5c0.625,-0.938 1.562,-1.563 2.5,-2.188c0.312,-0.625 0.625,-1.25 0.937,-1.875l3.125,-5.312c0.938,-1.875 2.188,-3.438 3.438,-5.313c1.25,-1.562 2.187,-3.437 3.437,-5c1.25,-1.562 2.5,-3.125 3.75,-4.687l4.063,-4.375c1.562,-1.563 2.812,-2.813 4.375,-4.063l4.687,-4.062c1.563,-1.25 3.125,-2.5 4.688,-3.75c3.125,-2.188 6.562,-4.375 10.312,-6.25c-2.812,2.812 -5.312,5.937 -7.5,9.062l-6.875,9.375c-0.937,1.563 -2.187,3.125 -3.125,4.688l-2.812,5c-0.938,1.562 -1.875,3.437 -2.813,5c-0.937,1.562 -1.875,3.437 -2.5,5c-0.937,1.562 -1.562,3.437 -2.187,5l-2.188,5l-1.875,5.312c-0.625,1.563 -1.25,3.438 -1.562,5.313c-0.313,1.875 -0.938,3.437 -1.25,5.312l-0.938,5.313c-0.312,1.25 -0.312,2.187 -0.625,3.437l1.875,0c0.938,-0.312 1.875,-0.312 3.125,-0.312c0.938,-0 2.188,-0.313 3.125,-0.625c0.938,-0.313 2.188,-0.313 3.125,-0.938c1.875,-0.625 4.063,-1.25 5.938,-2.187l3.125,-1.25c0.937,-0.313 1.875,-0.938 2.812,-1.563c1.875,-0.937 4.063,-1.875 5.938,-3.437c1.875,-1.25 3.75,-2.5 5.625,-3.75l5.625,-4.375c1.875,-1.25 3.75,-3.125 5.312,-4.688c1.875,-1.562 3.75,-3.125 5.313,-4.687l5,-5c0.625,-0.938 1.25,-1.875 1.875,-2.813c1.25,-1.562 2.187,-3.437 3.437,-5c1.25,-1.562 2.5,-3.125 3.75,-4.687l4.063,-4.375c1.562,-1.563 2.812,-2.813 4.375,-4.063l4.687,-4.062c1.563,-1.25 3.125,-2.5 4.688,-3.75c3.125,-2.188 6.562,-4.375 10.312,-6.25c-2.812,2.812 -5.312,5.937 -7.5,9.062l-6.875,9.375c-0.937,1.563 -2.187,3.125 -3.125,4.688l-2.812,5c-0.938,1.562 -1.875,3.437 -2.813,5c-0.937,1.562 -1.875,3.437 -2.5,5c-0.937,1.562 -1.562,3.437 -2.187,5l-2.188,5l-1.875,5.312c-0.625,1.563 -1.25,3.438 -1.562,5.313c-0.313,1.875 -0.938,3.437 -1.25,5.312l-0.938,5.313c-0.312,1.25 -0.312,2.187 -0.625,3.437l1.875,0c0.938,-0.312 1.875,-0.312 3.125,-0.312c0.938,-0 2.188,-0.313 3.125,-0.625c0.938,-0.313 2.188,-0.313 3.125,-0.938c1.875,-0.625 4.063,-1.25 5.938,-2.187l3.125,-1.25c0.937,-0.313 1.875,-0.938 2.812,-1.563c1.875,-0.937 4.063,-1.875 5.938,-3.437c1.875,-1.25 3.75,-2.5 5.625,-3.75l5.625,-4.375c1.875,-1.25 3.75,-3.125 5.312,-4.688c1.875,-1.562 3.75,-3.125 5.313,-4.687l10,-10c1.562,-1.875 3.437,-3.438 5,-5.313c1.562,-1.875 3.437,-3.437 5,-5.312c3.125,-3.75 6.562,-7.5 10,-10.938c-1.875,4.688 -4.063,9.063 -6.25,13.75c-0.938,2.188 -2.5,4.375 -3.75,6.563c-1.25,2.187 -2.5,4.375 -3.75,6.562c-0.938,1.875 -2.188,3.438 -3.438,5c19.063,10 36.875,22.813 52.5,38.438c45.938,46.562 70.313,112.5 73.125,196.875c3.126,5 11.25,34.687 4.376,71.562Z" style="fill:#e4f4f8;fill-rule:nonzero;"/></g><g><path d="M921.563,510.938l12.5,15l-8.75,-33.438c-29.688,-111.562 -116.25,-160 -136.25,-170c-3.75,-20.625 -10.313,-41.875 -20.313,-63.125c5.625,1.875 9.688,2.5 10,2.5l11.875,1.875l-3.437,-11.563c-37.813,-128.437 -121.25,-190.312 -184.375,-219.375c-68.438,-31.562 -127.188,-32.812 -130,-32.812c-2.5,-0 -61.25,1.25 -129.688,32.812c-63.125,29.375 -146.562,90.938 -184.375,219.375l-3.437,11.563l11.875,-1.875c0.625,0 4.375,-0.625 10,-2.5c-10,20.938 -16.25,42.5 -20.313,63.125c-19.687,9.688 -106.562,58.125 -136.25,170l-8.75,33.438l12.5,-15c-8.75,25.312 -15.312,55.625 -19.375,90.937c-5,42.188 -5,75 -5,76.563l0,14.687l7.5,-5c0.313,5.313 0.938,11.563 1.875,18.125c3.75,24.375 12.188,40.938 24.688,49.375c6.874,4.688 15.312,6.563 24.374,6.563c20.626,-0 44.063,-9.375 57.501,-15.938c3.437,29.688 10.312,56.25 20.312,79.688c-47.5,9.375 -67.813,44.375 -68.75,45.937l-8.75,15.313l13.125,-3.125c-9.688,12.5 -16.25,29.062 -16.25,45.312c0,13.438 5.313,45.938 53.438,54.063c9.374,1.562 19.374,2.187 29.999,2.187c27.813,0 60.625,-5 97.813,-15.312c32.188,-8.75 57.5,-18.75 65,-21.875c6.563,1.562 13.438,3.125 20.625,4.687c54.375,10.938 106.25,11.875 132.188,11.25c11.875,-0.312 24.062,-0.312 36.25,0l10.625,0c28.125,0 73.75,-1.875 121.562,-11.562c7.187,-1.563 13.75,-2.813 20.625,-4.688c7.5,3.125 32.813,13.125 65,21.875c37.187,10.313 70,15.313 97.812,15.313c10.938,-0 20.938,-0.625 30,-2.188c48.125,-7.812 53.438,-40.312 53.438,-54.062c-0,-16.25 -6.563,-32.813 -16.25,-45.313l13.125,3.125l-8.75,-15.312c-0.937,-1.563 -21.25,-36.563 -68.75,-45.938c10,-23.437 16.875,-50 20.313,-79.687c5.937,2.812 14.375,6.25 23.437,9.375c12.813,4.375 24.375,6.562 34.063,6.562c9.687,0 17.812,-2.187 24.374,-6.562c12.5,-8.438 20.938,-25 24.688,-49.375c0.937,-6.563 1.562,-12.813 1.875,-18.125l7.5,5l-0,-14.688c-0,-1.25 0.312,-34.062 -5,-76.562c-4.062,-35 -10.312,-65.313 -19.062,-90.625Zm-848.438,195.937c3.125,-1.25 8.125,-1.25 11.563,-0.937c4.062,4.375 5,11.875 5,11.875c1.875,-4.688 1.25,-10.625 0.625,-14.063c7.812,-6.25 18.75,-7.187 23.125,-7.187c-0,11.25 0.312,22.187 1.249,32.812c-17.187,8.75 -55.312,24.063 -71.562,13.125c-16.875,-11.25 -20,-47.187 -20,-64.687c37.188,-21.563 76.25,-23.75 92.188,-23.438c-0.938,10.313 -1.25,20.313 -1.563,30c-19.687,2.188 -29.062,11.25 -29.062,11.25c-2.813,-2.812 -8.438,-4.687 -8.438,-4.687c1.25,9.375 -3.125,15.937 -3.125,15.937Zm-57.187,-43.125c1.25,-35.625 7.5,-129.687 40.312,-185.937c10,-8.75 22.813,-18.125 36.875,-24.688c0,0 -36.25,3.438 -47.188,12.813c29.063,-71.25 83.438,-109.688 108.126,-124.375c-6.25,52.187 1.875,94.687 4.062,104.375c-13.75,19.062 -27.187,43.437 -35.312,74.062l-4.688,18.125l16.25,-9.687c0,-0 1.563,-0.938 3.75,-2.188c-6.25,22.188 -16.25,63.438 -21.562,111.875c-16.875,0.313 -59.375,2.188 -100.625,25.625Zm127.5,176.25c8.125,15 17.5,28.75 28.75,40.313c7.812,8.125 16.562,15.937 26.562,22.812c-11.25,-0.625 -23.125,-0.312 -33.75,1.25l3.125,-26.562l-5,-2.188c-1.563,-0.625 -31.563,-14.062 -69.375,-11.25c9.688,-9.375 25.938,-20.625 49.688,-24.375Zm-31.563,127.5c-26.25,-4.375 -40.312,-17.812 -40.312,-38.75c-0,-23.437 17.187,-46.25 31.562,-49.375c21.563,0 39.688,5.313 48.438,8.125l-4.688,38.438l11.875,-4.063c21.563,-7.812 64.688,-0.937 71.563,0c14.375,7.188 30,13.438 47.187,19.063c-36.25,12.812 -110.937,35.625 -165.625,26.562Zm763.125,-38.75c0,20.938 -14.062,34.375 -40.312,38.75c-54.688,9.063 -129.375,-13.75 -165.625,-26.562c17.187,-5.313 32.812,-11.875 47.187,-19.063c6.875,-1.25 50,-7.812 71.563,0l11.875,4.063l-4.688,-38.438c8.438,-3.125 26.563,-8.437 48.438,-8.125c14.062,3.125 31.562,25.938 31.562,49.375Zm-21.875,-64.375c-38.125,-2.812 -68.125,10.625 -69.687,11.25l-5,2.188l3.125,26.562c-10.625,-1.875 -22.813,-1.875 -33.75,-1.25c9.687,-7.187 18.75,-14.687 26.562,-22.812c11.25,-11.563 20.625,-25 28.75,-40.313c23.75,3.75 40,15 50,24.375Zm-90.312,5.313c-72.5,76.25 -226.25,79.687 -271.563,79.062c-12.187,-0.312 -24.375,-0.312 -36.563,0c-45.312,0.625 -198.75,-2.5 -271.562,-79.062c-98.437,-103.438 -35,-324.063 -25.937,-352.5c6.875,-3.438 18.75,-11.563 26.875,-14.688c-0,0 -23.125,-3.125 -40.625,4.063c24.062,-65.938 66.25,-110.313 66.25,-110.313c-1.25,0.938 -19.063,11.875 -38.75,34.063c-5,-32.188 -11.563,-113.438 30.312,-182.813c9.688,-14.375 17.813,-21.25 30.313,-31.25c-0,0 -29.688,4.375 -53.75,26.875c30.312,-91.25 87.812,-157.187 171.25,-195.625c65.625,-30.312 123.437,-31.562 123.75,-31.875c0.625,0 57.812,1.25 123.437,31.563c83.75,38.75 141.25,104.375 171.875,195.937c-15.625,-10.937 -29.375,-19.687 -53.75,-26.875c10.938,8.75 22.813,16.875 30.313,31.25c41.562,69.375 35,150.625 30.312,182.813c-12.5,-21.875 -27.812,-28.75 -38.75,-34.063c0,0 42.188,44.375 66.25,110.313c-8.75,-4.375 -36.875,0.625 -36.875,0.625c8.125,3.125 16.25,6.562 23.125,10c9.063,28.437 72.813,248.75 -25.937,352.5Zm140.625,-127.188c-8.438,5.625 -24.375,5 -44.688,-1.875c-11.25,-3.75 -21.562,-8.437 -26.875,-11.25c0.625,-10.625 1.25,-21.562 1.25,-32.812c4.688,-0 15.313,0.937 22.813,7.187c-0.626,3.125 -1.563,9.375 0.625,14.063c-0,-0 1.25,-7.5 5,-11.875c3.125,-0 8.125,-0 11.562,0.937c0,0 -4.062,-6.562 -3.125,-15.937c0,-0 -5.625,1.875 -8.437,4.687c-0,0 -9.063,-9.062 -28.75,-11.25c-0.313,-9.687 -0.938,-20 -1.563,-30.312c16.25,-0 55.313,2.187 92.188,23.437c-0,17.5 -3.125,53.438 -20,65Zm-73.75,-103.75c-5.313,-48.437 -15.313,-89.687 -21.563,-111.875c2.188,1.25 3.75,2.188 3.75,2.188l16.25,9.687l-4.687,-18.125c-8.125,-30.625 -21.563,-55 -35.313,-74.062c2.188,-9.688 10.313,-52.5 4.063,-104.375c25,14.687 79.375,52.812 108.125,124.375c-10.938,-9.375 -47.188,-12.813 -47.188,-12.813c14.063,6.563 26.875,15.938 36.875,24.688c32.813,56.25 39.063,150.625 40.313,185.937c-41.25,-24.062 -83.75,-25.937 -100.625,-25.625Z" style="fill:#083532;fill-rule:nonzero;"/></g><g><path d="M571.25,100.313c-1.562,1.875 -3.437,3.437 -5,5.312c-1.562,1.875 -3.437,3.438 -5,5l-5,5c-1.875,1.563 -3.75,3.125 -5.313,4.688c-1.875,1.562 -3.437,3.125 -5.312,4.687l-5.625,4.375c-1.875,1.25 -3.75,2.5 -5.625,3.75c-1.875,1.25 -3.75,2.188 -5.937,3.438c-0.938,0.625 -1.875,1.25 -2.813,1.562l-3.125,1.25c-1.875,0.938 -4.062,1.563 -5.937,2.188c-0.938,0.312 -2.188,0.625 -3.125,0.937c-0.938,0.313 -2.188,0.625 -3.125,0.625c-0.938,0 -1.875,0.313 -3.125,0.313l-1.875,-0c-0,-1.25 0.312,-2.188 0.625,-3.438l0.937,-5.312c0.313,-1.875 0.938,-3.438 1.25,-5.313c0.313,-1.875 0.938,-3.437 1.563,-5.312l-3.125,-14.063l21.875,-27.812l13.437,-11.25c-3.75,1.875 -6.875,3.75 -10.312,6.25c-1.563,1.25 -3.125,2.5 -4.688,3.75l-4.687,4.062c-1.563,1.25 -2.813,2.813 -4.375,4.063l-4.063,4.375c-1.25,1.562 -2.5,3.125 -3.75,4.687c-1.25,1.563 -2.5,3.438 -3.437,5c-0.625,0.938 -1.25,1.875 -1.875,2.813l-5,5c-1.875,1.562 -3.751,3.125 -5.313,4.687c-1.875,1.563 -3.438,3.125 -5.313,4.688l-5.625,4.375c-1.875,1.25 -3.75,2.5 -5.625,3.75c-1.875,1.25 -3.75,2.187 -5.937,3.437c-0.937,0.625 -1.875,1.25 -2.812,1.563l-3.125,1.25c-1.875,0.937 -4.063,1.562 -5.938,2.187c-0.937,0.313 -2.188,0.625 -3.125,0.938c-0.937,0.312 -2.188,0.625 -3.125,0.625c-0.937,-0 -1.875,0.312 -3.125,0.312l-1.875,0c0,-1.25 0.313,-2.187 0.625,-3.437l0.938,-5.313c0.312,-1.875 0.937,-3.437 1.25,-5.312l-0,-0.625l-3.438,-0l5.938,-22.188l21.562,-27.812l9.688,-8.125c-3.751,1.875 -6.876,3.75 -10.313,6.25c-1.563,1.25 -3.125,2.5 -4.688,3.75l-4.687,4.062c-1.563,1.25 -2.812,2.813 -4.375,4.063l-4.062,4.375c-1.25,1.562 -2.5,3.125 -3.75,4.687c-1.25,1.563 -2.5,3.438 -3.438,5c-1.25,1.563 -2.5,3.438 -3.438,5.313l-3.125,5.312c-0.312,0.625 -0.625,1.25 -0.937,1.875c-0.937,0.625 -1.562,1.563 -2.5,2.188l-5,5c-1.875,1.562 -3.75,3.125 -5.313,4.687c-1.875,1.563 -3.437,3.125 -5.312,4.688l-5.625,4.375c-1.875,1.25 -3.75,2.5 -5.625,3.75c-1.875,1.25 -3.75,2.187 -5.937,3.437c-0.938,0.625 -1.875,1.25 -2.813,1.563l-3.125,1.25c-1.875,0.937 -4.062,1.562 -5.937,2.187c-0.938,0.313 -2.188,0.625 -3.125,0.938c-0.938,0.312 -2.188,0.625 -3.125,0.625c-0.938,-0 -1.875,0.312 -3.125,0.312l-1.875,0c-0,-1.25 0.312,-2.187 0.625,-3.437l0.937,-5.313c0.313,-1.875 0.938,-3.437 1.25,-5.312c0.313,-1.875 0.938,-3.438 1.563,-5.313l0.625,-1.562c-1.875,0.312 -3.75,0.625 -5.938,0.937l-7.187,18.125l-8.438,14.375c0,0 28.75,15.625 56.25,-1.875c0,0 22.188,15.938 56.875,-1.562l3.438,8.125c-0,-0 37.5,15 79.687,-13.75c0,-0 97.5,72.5 85.938,192.5c-0,-0 49.687,205.312 -222.5,214.687l-15.625,4.375l-31.563,-1.25c30,10.938 62.188,16.563 94.375,16.563c41.25,-0 82.813,-9.375 120,-27.188c74.375,-35.625 98.125,-87.812 105,-125.312c6.563,-36.875 -1.25,-66.563 -3.125,-72.5c-2.5,-84.063 -27.187,-150.313 -73.125,-196.875c-15.625,-15.625 -33.125,-28.75 -52.5,-38.438c1.25,-1.562 2.5,-3.437 3.438,-5l7.5,-13.125c2.187,-4.687 4.375,-9.062 6.25,-13.75c-3.438,3.75 -6.875,7.188 -10,10.938c-3.125,2.187 -5,3.75 -6.563,5.625Z" style="fill:#477f80;fill-rule:nonzero;"/></g><g><path d="M621.875,154.375c-15.625,-15.625 -33.125,-28.75 -52.5,-38.437c1.25,-1.563 2.5,-3.438 3.438,-5l7.5,-13.125c2.187,-4.688 4.375,-9.063 6.25,-13.75c-3.438,3.75 -6.875,7.187 -10,10.937c-1.563,1.875 -3.438,3.75 -5,5.313c-1.563,1.875 -3.438,3.437 -5,5.312c-1.563,1.875 -3.438,3.438 -5,5l-5,5c-1.875,1.563 -3.75,3.125 -5.313,4.688c-1.875,1.562 -3.438,3.125 -5.313,4.687l-5.625,4.375c-1.875,1.25 -3.75,2.5 -5.624,3.75c-1.875,1.25 -3.75,2.188 -5.938,3.438c-0.937,0.625 -1.875,1.25 -2.812,1.562l-3.125,1.25c-1.875,0.938 -4.063,1.563 -5.938,2.188c-0.937,0.312 -2.187,0.625 -3.125,0.937c-0.937,0.313 -2.187,0.625 -3.125,0.625c-0.937,0 -1.875,0.313 -3.125,0.313l-1.875,-0c0,-1.25 0.313,-2.188 0.625,-3.438l0.938,-5.312c0.312,-1.875 0.937,-3.438 1.25,-5.313c0.312,-1.875 0.937,-3.437 1.562,-5.312l1.875,-5.313l2.188,-5c0.625,-1.875 1.562,-3.437 2.187,-5c0.938,-1.562 1.563,-3.437 2.5,-5c0.938,-1.562 1.875,-3.437 2.813,-5l2.812,-5c0.938,-1.562 2.188,-3.125 3.125,-4.687l6.875,-9.375c2.5,-3.125 5,-5.938 7.5,-9.063c-3.75,1.875 -6.875,3.75 -10.312,6.25c-1.563,1.25 -3.125,2.5 -4.688,3.75l-4.687,4.063c-1.563,1.25 -2.813,2.812 -4.375,4.062l-4.063,4.375c-1.25,1.563 -2.5,3.125 -3.75,4.688c-1.25,1.562 -2.5,3.437 -3.437,5c-0.625,0.937 -1.25,1.875 -1.875,2.812l-5,5c-1.875,1.563 -3.75,3.125 -5.313,4.688c-1.875,1.562 -3.437,3.125 -5.313,4.687l-5.624,4.375c-1.875,1.25 -3.75,2.5 -5.625,3.75c-1.875,1.25 -3.75,2.188 -5.938,3.438c-0.937,0.625 -1.875,1.25 -2.812,1.562l-3.125,1.25c-1.875,0.938 -4.063,1.563 -5.938,2.188c-0.937,0.312 -2.187,0.625 -3.125,0.937c-0.937,0.313 -2.187,0.625 -3.125,0.625c-0.937,0 -1.875,0.313 -3.125,0.313l-1.875,-0c0,-1.25 0.313,-2.188 0.625,-3.438l0.938,-5.312c0.312,-1.875 0.937,-3.438 1.25,-5.313c0.312,-1.875 0.937,-3.437 1.562,-5.312l1.875,-5.313l2.188,-5c0.625,-1.875 1.562,-3.438 2.187,-5c0.938,-1.563 1.563,-3.438 2.5,-5c0.938,-1.563 1.875,-3.438 2.813,-5l2.812,-5c0.938,-1.563 2.188,-3.125 3.125,-4.688l6.875,-9.375c2.5,-3.125 5,-5.937 7.5,-9.062c-3.75,1.875 -6.875,3.75 -10.312,6.25c-1.563,1.25 -3.125,2.5 -4.688,3.75l-4.687,4.062c-1.563,1.25 -2.813,2.813 -4.375,4.063l-4.063,4.375c-1.25,1.562 -2.5,3.125 -3.75,4.687c-1.25,1.563 -2.5,3.438 -3.437,5c-1.25,1.563 -2.5,3.438 -3.438,5.313l-3.125,5.312c-0.312,0.625 -0.625,1.25 -0.937,1.875c-0.938,0.626 -1.563,1.563 -2.5,2.188l-5,5c-1.875,1.563 -3.75,3.125 -5.313,4.688c-1.875,1.562 -3.437,3.125 -5.312,4.687l-5.625,4.375c-1.875,1.25 -3.75,2.5 -5.625,3.75c-1.875,1.25 -3.75,2.188 -5.938,3.438c-0.937,0.625 -1.875,1.25 -2.812,1.562l-3.125,1.25c-1.875,0.938 -4.063,1.563 -5.938,2.188c-0.937,0.312 -2.187,0.625 -3.125,0.937c-0.937,0.313 -2.187,0.625 -3.125,0.625c-0.937,0 -1.875,0.313 -3.125,0.313l-1.875,-0c0,-1.25 0.313,-2.188 0.625,-3.438l0.938,-5.313c0.312,-1.875 0.937,-3.437 1.25,-5.312c0.312,-1.875 0.937,-3.438 1.562,-5.313l1.875,-5.312l2.188,-5c0.625,-1.875 1.562,-3.438 2.187,-5c0.938,-1.563 1.563,-3.438 2.5,-5c0.938,-1.563 1.875,-3.438 2.813,-5l2.812,-5c0.938,-1.563 2.188,-3.125 3.125,-4.688l6.875,-9.375c2.5,-3.125 5,-5.937 7.5,-9.062c-3.75,1.875 -6.875,3.75 -10.312,6.25c-1.563,1.25 -3.125,2.5 -4.688,3.75l-4.687,4.062c-1.563,1.25 -2.813,2.813 -4.375,4.063l-4.063,4.375c-1.25,1.562 -2.5,3.125 -3.75,4.687c-1.25,1.563 -2.5,3.438 -3.437,5c-1.25,1.563 -2.5,3.438 -3.438,5.313l-2.812,4.687c-19.375,10 -37.188,22.813 -52.813,38.75c-45.937,46.563 -70.312,112.5 -73.125,196.875c-1.875,6.25 -9.687,35.938 -3.125,72.5c6.875,37.5 30.313,89.688 105,125.313c37.188,17.812 78.438,27.187 120,27.187c41.25,0 82.813,-9.375 120,-27.187c74.375,-35.625 98.125,-87.813 105,-125.313c6.563,-36.875 -1.25,-66.562 -3.125,-72.5c-4.063,-83.437 -28.75,-149.687 -74.375,-195.937Zm60.938,266.563c-8.75,49.375 -41.25,87.812 -96.25,114.375c-35,16.875 -74.063,25.625 -113.125,25.625c-39.063,-0 -78.125,-8.75 -113.125,-25.625c-54.688,-26.25 -87.188,-64.688 -96.25,-113.438c-6.875,-36.875 2.812,-66.562 2.812,-66.875l0.313,-0.937l-0,-1.25c2.187,-80.625 25.312,-143.75 68.75,-187.5c10.312,-10.313 21.562,-19.375 33.437,-26.875l-0.313,1.562c-0.625,2.188 -0.937,4.063 -1.25,6.25l-0.937,6.25l-0.937,5.938l5.937,1.875c2.5,0.625 3.438,0.937 5.313,1.25c1.562,0.312 3.125,0.312 4.687,0.312l4.375,0l4.375,-0.625c1.563,-0.312 2.813,-0.625 4.063,-0.937c1.249,-0.313 2.812,-0.625 4.062,-1.25c2.5,-0.938 5.313,-1.875 7.812,-3.125l3.75,-1.875c1.25,-0.625 2.188,-1.25 3.438,-2.188c2.188,-1.562 4.688,-2.812 6.563,-4.375c2.187,-1.562 4.062,-3.125 6.25,-5l5.625,-5.312c0.625,-0.313 0.937,-0.938 1.249,-1.25c-0.312,0.937 -0.312,2.187 -0.625,3.125l-0.937,6.25l-0.938,5.937l5.938,1.875c2.5,0.625 3.438,0.938 5.313,1.25c1.562,0.313 3.125,0.313 4.687,0.313l4.375,-0l4.375,-0.625c1.563,-0.313 2.812,-0.625 4.062,-0.938c1.25,-0.312 2.813,-0.625 4.063,-1.25c2.5,-0.937 5.312,-1.875 7.812,-3.125l3.75,-1.875c1.25,-0.625 2.188,-1.25 3.438,-2.187c2.188,-1.563 4.687,-2.813 6.563,-4.375c2.187,-1.563 4.062,-3.125 6.25,-5l0.625,-0.625l-0.625,2.812c-0.626,2.188 -0.938,4.063 -1.25,6.25l-0.938,6.25l-0.937,5.938l5.937,1.875c2.5,0.625 3.438,0.937 5.313,1.25c1.562,0.312 3.125,0.312 4.687,0.312l4.375,0l4.375,-0.625c1.563,-0.312 2.813,-0.625 4.063,-0.937c1.25,-0.313 2.812,-0.625 4.062,-1.25c2.5,-0.938 5.313,-1.875 7.813,-3.125l3.75,-1.875c1.25,-0.625 2.187,-1.25 3.437,-2.188c2.188,-1.562 4.688,-2.812 6.563,-4.375c2.187,-1.562 4.062,-3.125 6.25,-5l5.625,-5.312c1.875,-1.875 3.437,-3.75 5.312,-5.625c0.313,-0.313 0.313,-0.625 0.625,-0.625c18.75,9.375 35.938,21.562 50.938,36.875c43.125,43.75 66.25,106.875 68.75,187.5l-0,1.25l0.312,0.937c-0.625,0 8.75,29.375 2.188,65.938Z" style="fill:#083532;fill-rule:nonzero;"/></g><g><path d="M817.188,934.375c-0,0 17.5,19.375 11.562,41.25c0,0 26.25,-5.937 24.063,-6.25c-1.875,0 -1.875,-26.562 -35.625,-35Z" style="fill:#083532;fill-rule:nonzero;"/></g><g><path d="M884.688,935.313c-4.375,-6.563 -12.813,-15.625 -31.563,-16.25c0,-0 17.813,13.437 16.875,32.5c0,-0 6.563,-3.125 12.187,-5.625c-0.312,-3.438 0.626,-7.188 2.501,-10.625Z" style="fill:#083532;fill-rule:nonzero;"/></g><g><path d="M128.75,934.375c0,0 -17.5,19.375 -11.562,41.25c-0,0 -26.25,-5.937 -24.063,-6.25c2.188,0 1.875,-26.562 35.625,-35Z" style="fill:#083532;fill-rule:nonzero;"/></g><g><path d="M61.563,935.313c4.375,-6.563 12.812,-15.625 31.562,-16.25c0,-0 -17.812,13.437 -16.875,32.5c0,-0 -6.562,-3.125 -12.187,-5.625c-0,-3.438 -0.938,-7.188 -2.5,-10.625Z" style="fill:#083532;fill-rule:nonzero;"/></g><g><g><path d="M76.25,690.938c0.938,9.375 -3.125,15.937 -3.125,15.937c3.125,-1.25 8.125,-1.25 11.563,-0.937c4.062,4.375 5,11.875 5,11.875c1.875,-4.688 1.25,-10.625 0.625,-14.063c2.187,-1.562 4.375,-2.812 6.562,-3.75c-0.312,-3.75 -0.312,-7.5 -0.625,-11.25c-7.812,3.125 -11.562,6.875 -11.562,6.875c-2.813,-2.812 -8.438,-4.687 -8.438,-4.687Z" style="fill:none;fill-rule:nonzero;"/></g><g><path d="M453.125,102.188l-5.937,22.187l3.437,0c0.313,-1.562 0.938,-3.125 1.25,-4.687l1.875,-5.313l2.188,-5c0.625,-1.875 1.562,-3.437 2.187,-5c0.938,-1.562 1.563,-3.437 2.5,-5c0.938,-1.562 1.875,-3.437 2.813,-5l2.812,-5c0.938,-1.562 2.188,-3.125 3.125,-4.687l6.875,-9.375c2.5,-3.125 5,-5.938 7.5,-9.063l-9.687,8.125l-20.938,27.813Z" style="fill:none;fill-rule:nonzero;"/></g><g><path d="M506.25,110l3.125,14.063l1.875,-5.313l2.188,-5c0.625,-1.875 1.562,-3.437 2.187,-5c0.938,-1.562 1.563,-3.437 2.5,-5c0.938,-1.562 1.875,-3.437 2.813,-5l2.812,-5c0.938,-1.562 2.188,-3.125 3.125,-4.687l6.875,-9.375c2.5,-3.125 5,-5.938 7.5,-9.063l-13.437,11.25l-21.563,28.125Z" style="fill:none;fill-rule:nonzero;"/></g><g><path d="M182.188,918.438c3.437,14.375 3.75,45.312 -57.813,50.625c53.125,4.375 119.375,-16.25 153.125,-28.125c-17.187,-5.313 -32.812,-11.875 -47.187,-19.063c-5,-0.625 -27.813,-4.062 -48.125,-3.437Z" style="fill:#477f80;fill-rule:nonzero;"/></g><g><path d="M116.875,638.75c5.313,-48.437 15.313,-89.687 21.563,-111.875c-2.188,1.25 -3.75,2.188 -3.75,2.188l-16.25,9.687l4.687,-18.125c8.125,-30.625 21.563,-55 35.313,-74.062c-2.188,-9.688 -10.313,-52.5 -4.063,-104.375c0,-0 -16.875,44.375 -11.25,103.437c0,0 -39.687,41.25 -41.563,110.313l19.688,-6.25c0,-0 -20.625,21.25 -25,90c8.438,-0.938 15.625,-0.938 20.625,-0.938Z" style="fill:#b3d7db;fill-rule:nonzero;"/></g><g><path d="M96.25,688.75c4.375,-1.875 10.313,-3.437 17.5,-4.375c0.313,-9.687 0.938,-20 1.563,-30c-4.688,0 -11.563,0 -19.375,0.938c-0.313,10 -0.313,21.25 0.312,33.437Z" style="fill:#477f80;fill-rule:nonzero;"/></g><g><path d="M114.688,729.375c-0.938,-10.625 -1.25,-21.562 -1.25,-32.812c-3.438,-0 -10,0.625 -16.563,3.437c0.625,11.25 1.875,23.125 3.438,35.938c5.625,-2.5 10.312,-4.688 14.375,-6.563Z" style="fill:#477f80;fill-rule:nonzero;"/></g><g><path d="M789.063,516.875c-6.875,-3.437 -15,-6.875 -23.125,-10c-0,0 28.125,-5 36.875,-0.625c-24.063,-65.937 -66.251,-110.312 -66.251,-110.312c10.938,5.312 26.25,12.187 38.75,34.062c5,-32.187 11.25,-113.437 -30.312,-182.812c-7.813,-14.688 -19.375,-22.5 -30.313,-31.25c24.375,7.187 38.125,15.937 53.75,26.875c-30.312,-91.563 -88.125,-157.5 -171.875,-195.938c-42.187,-19.375 -80.937,-26.875 -103.437,-29.687c-0,-0 106.25,24.062 162.5,105.312c-0,0 -37.188,-32.5 -69.375,-38.75c-1.875,4.688 -4.063,9.063 -6.25,13.75c-0.938,2.188 -2.5,4.375 -3.75,6.563c-1.25,2.187 -2.5,4.375 -3.75,6.562c-0.938,1.875 -2.188,3.438 -3.438,5c19.063,10 36.875,22.813 52.5,38.438c45.938,46.562 70.313,112.5 73.125,196.875c1.875,6.25 9.688,35.937 3.125,72.5c-6.875,37.5 -30.312,89.687 -105,125.312c-37.187,17.813 -78.437,27.188 -120,27.188c-32.187,-0 -64.375,-5.625 -94.375,-16.563c0,0 104.063,60 306.25,6.875c0,0 85,184.375 -36.875,290.625c-121.562,105.938 -333.75,77.188 -335.312,77.188c59.062,13.437 116.875,14.375 141.562,14.062c12.188,-0.312 24.375,-0.312 36.563,0c45.312,0.625 198.75,-2.5 271.562,-79.062c99.376,-103.125 35.626,-323.438 26.875,-352.188Z" style="fill:#b3d7db;fill-rule:nonzero;"/></g><g><path d="M449.063,130l-0.938,5.313c-0.312,1.25 -0.312,2.187 -0.625,3.437l1.875,0c0.938,-0.312 1.875,-0.312 3.125,-0.312c0.938,-0 2.188,-0.313 3.125,-0.625c0.938,-0.313 2.188,-0.313 3.125,-0.938c1.875,-0.625 4.063,-1.25 5.938,-2.187l3.125,-1.25c0.937,-0.313 1.875,-0.938 2.812,-1.563c1.875,-0.937 4.063,-1.875 5.938,-3.437c1.875,-1.25 3.75,-2.5 5.625,-3.75l5.624,-4.375c1.875,-1.25 3.75,-3.125 5.313,-4.688c1.875,-1.562 3.75,-3.125 5.313,-4.687l5,-5c0.625,-0.938 1.25,-1.875 1.875,-2.813c1.25,-1.562 2.187,-3.437 3.437,-5c1.25,-1.562 2.5,-3.125 3.75,-4.687l4.063,-4.375c1.562,-1.563 2.812,-2.813 4.375,-4.063l4.687,-4.062c1.563,-1.25 3.125,-2.5 4.688,-3.75c3.125,-2.188 6.562,-4.375 10.312,-6.25c0,-0 -26.875,9.062 -49.063,32.187c-16.875,17.813 -34.375,20.625 -41.875,20.938l0,0.625c0.313,1.875 -0.312,3.75 -0.624,5.312Z" style="fill:#b3d7db;fill-rule:nonzero;"/></g><g><path d="M507.813,129.688c-0.313,1.875 -0.938,3.437 -1.25,5.312l-0.938,5.313c-0.312,1.25 -0.312,2.187 -0.625,3.437l1.875,0c0.938,-0.312 1.875,-0.312 3.125,-0.312c0.938,-0 2.188,-0.313 3.125,-0.625c0.938,-0.313 2.188,-0.313 3.125,-0.938c1.875,-0.625 4.063,-1.25 5.938,-2.187l3.125,-1.25c0.937,-0.313 1.875,-0.938 2.812,-1.563c1.875,-0.937 4.063,-1.875 5.938,-3.437c1.875,-1.25 3.75,-2.5 5.624,-3.75l5.625,-4.375c1.875,-1.25 3.75,-3.125 5.313,-4.688c1.875,-1.562 3.75,-3.125 5.313,-4.687l10,-10c1.562,-1.875 3.437,-3.438 5,-5.313c1.562,-1.875 3.437,-3.437 5,-5.312c3.125,-3.75 6.562,-7.5 10,-10.938c-0,0 -44.063,39.375 -76.875,40.313c-0.625,1.25 -0.938,3.125 -1.25,5Z" style="fill:#b3d7db;fill-rule:nonzero;"/></g><g><path d="M385.625,131.875c-0.312,1.875 -0.937,3.438 -1.25,5.313l-0.937,5.312c-0.313,1.25 -0.313,2.188 -0.625,3.438l1.875,-0c0.937,-0.313 1.875,-0.313 3.125,-0.313c0.937,0 2.187,-0.312 3.125,-0.625c0.937,-0.312 2.187,-0.312 3.125,-0.937c1.875,-0.625 4.062,-1.25 5.937,-2.188l3.125,-1.25c0.938,-0.312 1.875,-0.937 2.813,-1.562c1.875,-0.938 4.062,-1.875 5.937,-3.438c1.875,-1.25 3.75,-2.5 5.625,-3.75l5.625,-4.375c1.875,-1.25 3.75,-3.125 5.313,-4.687c1.875,-1.563 3.75,-3.125 5.312,-4.688l5,-5c0.625,-0.937 1.563,-1.562 2.5,-2.187c0.313,-0.625 0.625,-1.25 0.938,-1.875l3.125,-5.313c0.937,-1.875 2.187,-3.437 3.437,-5.312c1.25,-1.563 2.188,-3.438 3.438,-5c1.25,-1.563 2.5,-3.125 3.75,-4.688l4.062,-4.375c1.563,-1.562 2.813,-2.812 4.375,-4.062l4.688,-4.063c1.562,-1.25 3.125,-2.5 4.687,-3.75c3.125,-2.187 6.563,-4.375 10.313,-6.25c-0,0 -36.25,12.813 -56.25,40.313c-0,-0 -13.75,13.75 -40,18.437l-0.625,1.563c-0.938,1.875 -1.25,3.437 -1.563,5.312Z" style="fill:#b3d7db;fill-rule:nonzero;"/></g></g></g><g><path d="M620.627,259.688l-147.5,-0c-5.313,-0 -9.375,-4.063 -9.375,-9.375c-0,-5.313 4.062,-9.375 9.375,-9.375l147.5,-0c5.312,-0 9.375,4.062 9.375,9.375c-0,5.312 -4.375,9.375 -9.375,9.375Z" style="fill:#083532;fill-rule:nonzero;"/></g><g><path d="M555.939,360.313l25.938,-0c21.25,-0 38.75,-17.188 38.75,-38.75l-0,-71.25l-123.75,-0l-0,50.937c-0,32.5 26.562,59.063 59.062,59.063Z" style="fill:#083532;fill-rule:nonzero;"/><path d="M581.877,369.688l-25.938,-0c-37.812,-0 -68.437,-30.625 -68.437,-68.438l-0,-50.937c-0,-5.313 4.062,-9.375 9.375,-9.375l123.75,-0c5.312,-0 9.375,4.062 9.375,9.375l-0,71.25c-0,26.562 -21.563,48.125 -48.125,48.125Zm-75.625,-110l-0,41.562c-0,27.5 22.187,49.688 49.687,49.688l25.938,-0c16.25,-0 29.375,-13.125 29.375,-29.375l-0,-61.875l-105,-0Z" style="fill:#083532;fill-rule:nonzero;"/></g><g><path d="M472.814,259.688l-147.5,-0c-5.312,-0 -9.375,-4.063 -9.375,-9.375c0,-5.313 4.063,-9.375 9.375,-9.375l147.5,-0c5.313,-0 9.375,4.062 9.375,9.375c0,5.312 -4.062,9.375 -9.375,9.375Z" style="fill:#083532;fill-rule:nonzero;"/></g><g><path d="M389.689,360.313l-25.937,-0c-21.25,-0 -38.75,-17.188 -38.75,-38.75l-0,-71.25l123.75,-0l-0,50.937c-0,32.5 -26.25,59.063 -59.063,59.063Z" style="fill:#083532;fill-rule:nonzero;"/><path d="M389.689,369.688l-25.937,-0c-26.563,-0 -48.125,-21.563 -48.125,-48.125l-0,-71.25c-0,-5.313 4.062,-9.375 9.375,-9.375l123.75,-0c5.312,-0 9.375,4.062 9.375,9.375l-0,50.937c-0,37.5 -30.625,68.438 -68.438,68.438Zm-55,-110l0,61.875c0,16.25 13.125,29.375 29.375,29.375l25.938,-0c27.5,-0 49.687,-22.188 49.687,-49.688l0,-41.562l-105,-0Z" style="fill:#083532;fill-rule:nonzero;"/></g><g><circle cx="508.656" cy="411.094" r="15.938" style="fill:#083532;"/></g><g><circle cx="436.781" cy="411.094" r="15.938" style="fill:#083532;"/></g><g><path d="M470.219,527.969c-56.25,-0 -92.5,-34.688 -93.125,-35c-3.75,-3.75 -3.75,-9.688 -0,-13.125c3.75,-3.75 9.687,-3.75 13.125,-0c2.812,2.812 70.937,66.875 166.25,-0.938c4.062,-3.125 10,-1.875 13.125,2.188c3.125,4.062 1.875,10 -2.188,13.125c-36.25,25 -69.062,33.75 -97.187,33.75Z" style="fill:#083532;fill-rule:nonzero;"/></g></svg>